<mxfile host="app.diagrams.net" modified="2024-02-29T10:01:44.990Z" agent="Mozilla/5.0 (Macintosh; Intel Mac OS X 10_15_7) AppleWebKit/537.36 (KHTML, like Gecko) Chrome/122.0.0.0 Safari/537.36" version="23.1.8" etag="nS4K8Vwp1Azc_W0ahHe6" type="github">
  <diagram name="Page-1" id="JLM9cKOjEDjc5AZoUWLw">
    <mxGraphModel>
      <root>
        <mxCell id="0" />
        <mxCell id="1" parent="0" />
      </root>
    </mxGraphModel>
  </diagram>
</mxfile>
